# AST/ASF file generated using VICON BodyLanguage
# -----------------------------------------------
:version 1.10
:name VICON
:units
  mass 1.0
  length 0.45
  angle deg
:documentation
   .ast/.asf automatically generated from VICON data using
   VICON BodyBuilder and BodyLanguage model FoxedUp or BRILLIANT.MOD
:root
   order TX TY TZ RX RY RZ
   axis XYZ
   position 0 0 0  
   orientation 0 0 0 
:bonedata
  begin
     id 1 
     name lhipjoint
     direction 0.522423 -0.726805 0.445902 
     length 2.25074 
     axis 0 0 0  XYZ
  end
  begin
     id 2 
     name lfemur
     direction 0.34202 -0.939693 0  
     length 6.54609  
     axis 0 0 20  XYZ
    dof rx ry rz
    limits (-160.0 20.0)
           (-70.0 70.0)
           (-60.0 70.0)
  end
  begin
     id 3 
     name ltibia
     direction 0.34202 -0.939693 0   
     length 7.7528   
     axis 0 0 20   XYZ
    dof rx
    limits (-10.0 170.0)
  end
  begin
     id 4 
     name lfoot
     direction 0.143696 -0.394801 0.90746   
     length 1.73269   
     axis -90 7.62852e-016 20   XYZ
    dof rx rz
    limits (-45.0 90.0)
           (-70.0 20.0)
  end
  begin
     id 5 
     name ltoes
     direction 1.53633e-011 -4.21912e-011 1   
     length 0.858383   
     axis -90 7.62852e-016 20   XYZ
    dof rx
    limits (-90.0 20.0)
  end
  begin
     id 6 
     name rhipjoint
     direction -0.515943 -0.73016 0.447961   
     length 2.2404  
     axis 0 0 0  XYZ 
  end
  begin
     id 7 
     name rfemur
     direction -0.34202 -0.939693 0   
     length 6.84377   
     axis 0 0 -20   XYZ
    dof rx ry rz
    limits (-160.0 20.0)
           (-70.0 70.0)
           (-70.0 60.0)
  end
  begin
     id 8 
     name rtibia
     direction -0.34202 -0.939693 0   
     length 7.57596   
     axis 0 0 -20   XYZ
    dof rx
    limits (-10.0 170.0)
 end
 begin
     id 9 
     name rfoot
     direction -0.0999372 -0.274575 0.956358   
     length 1.78783  
     axis -90 -7.62852e-016 -20   XYZ
    dof rx rz
    limits (-45.0 90.0)
           (-20.0 70.0)
  end
  begin
     id 10 
     name rtoes
     direction -1.53535e-011 -4.21895e-011 1   
     length 0.898614   
     axis -90 -7.62852e-016 -20   XYZ
    dof rx
    limits (-90.0 20.0)
  end
  begin
     id 11 
     name lowerback
     direction -0.011775 0.996164 -0.0867116   
     length 1.91499   
     axis 0 0 0   XYZ
    dof rx ry rz
    limits (-20.0 45.0)
           (-30.0 30.0)
           (-30.0 30.0)
  end
  begin
     id 12 
     name upperback
     direction -0.00189771 0.999673 -0.0254833   
     length 1.92213   
     axis 0 0 0   XYZ
    dof rx ry rz
    limits (-20.0 45.0)
           (-30.0 30.0)
           (-30.0 30.0)
  end
  begin
     id 13 
     name thorax
     direction 0.00335995 0.999878 0.0152401   
     length 1.93138   
     axis 0 0 0   XYZ
    dof rx ry rz
    limits (-20.0 45.0)
           (-30.0 30.0)
           (-30.0 30.0)
  end
  begin
     id 14 
     name lowerneck
     direction 0.00233191 0.998509 0.0545404   
     length 1.59408   
     axis 0 0 0   XYZ
    dof rx ry rz
    limits (-20.0 45.0)
           (-30.0 30.0)
           (-30.0 30.0)
  end
  begin
     id 15 
     name upperneck
     direction 0.07881 0.9956 -0.0506934   
     length 1.59344   
     axis 0 0 0   XYZ
    dof rx ry rz
    limits (-20.0 45.0)
           (-30.0 30.0)
           (-30.0 30.0)
  end
  begin
     id 16
     name head
     direction 0.0261681 0.999378 -0.0236299  
     length 1.60935  
     axis 0 0 0   XYZ
    dof rx ry rz
    limits (-20.0 45.0)
           (-30.0 30.0)
           (-30.0 30.0)
  end
  begin
     id 17 
     name lclavicle
     direction 0.96643 0.252035 0.0499195  
     length 3.82153  
     axis 0 0 0   XYZ
    dof ry rz
    limits (-20.0 10.0)
           (0.0 20.0)
  end
  begin
     id 18 
     name lhumerus
     direction 1 -4.48967e-011 -2.01614e-018   
     length 4.87796   
     axis 180 -30 -90   XYZ
    dof rx ry rz
    limits (-60.0 90.0)
           (-90.0 90.0)
           (-90.0 90.0)
  end
  begin
     id 19
     name lradius
     direction 1 -4.48958e-011 3.1409e-027   
     length 3.23169   
     axis 180 -30 -90   XYZ
    dof rx
    limits (-10.0 170.0)
  end
  begin
     id 20
     name lwrist
     direction 1 -4.48924e-011 1.0365e-027   
     length 1.61584   
     axis -2.56395e-016 90 90   XYZ
    dof ry
    limits (-180.0 0.0)
 end
  begin
     id 21 
     name lhand
     direction 1 -4.49055e-011 2.09488e-027   
     length 0.731324   
     axis -1.32723e-015 90 90   XYZ
    dof rx rz
    limits (-90.0 90.0)
           (-45.0 45.0)
  end
  begin
     id 22 
     name lfingers
     direction 1 -4.48935e-011 4.14981e-027   
     length 0.589612   
     axis -2.6545e-015 90 90   XYZ
    dof rx
    limits (0.0 90.0)
  end
  begin
     id 23
     name lthumb
     direction 0.707107 -6.35097e-011 0.707107   
     length 0.846569   
     axis -90 45 5.05613e-014   XYZ
    dof rx rz
    limits (-45.0 45.0)
           (-45.0 45.0)
  end
  begin
     id 24 
     name rclavicle
     direction -0.979337 0.201016 0.0221522   
     length 3.73827  
     axis 0 0 0   XYZ 
    dof ry rz
    limits (-10.0 20.0)
           (-20.0 0.0)
  end
  begin
     id 25 
     name rhumerus
     direction -1 -4.48971e-011 1.65907e-027  
     length 4.9143   
     axis 180 30 90   XYZ
    dof rx ry rz
    limits (-90.0 60.0)
           (-90.0 90.0)
           (-90.0 90.0)
  end
  begin
     id 26 
     name rradius
     direction -1 -4.4894e-011 2.17871e-028   
     length 3.29093   
     axis 180 30 90   XYZ
    dof rx
    limits (-10.0 170.0)
  end
  begin
     id 27 
     name rwrist
     direction -1 -4.48971e-011 1.04038e-027   
     length 1.64546   
     axis -2.56395e-016 -90 -90   XYZ
    dof ry
    limits (-180.0 0.0)
  end
  begin
     id 28
     name rhand
     direction -1 -4.49017e-011 2.08843e-027   
     length 0.54512   
     axis -1.32723e-015 -90 -90   XYZ
    dof rx rz
    limits (-90.0 90.0)
           (-45.0 45.0)
  end
  begin
     id 29
     name rfingers
     direction -1 -4.48918e-011 4.1439e-027   
     length 0.43949   
     axis -2.6545e-015 -90 -90   XYZ
    dof rx
    limits (0.0 90.0)
  end
  begin
     id 30
     name rthumb
     direction -0.707107 -6.35065e-011 0.707107   
     length 0.631022   
     axis -90 -45 -5.05613e-014   XYZ
    dof rx rz
    limits (-45.0 45.0)
           (-45.0 45.0)
  end
:hierarchy
  begin
    root lhipjoint rhipjoint lowerback
    lhipjoint lfemur
    lfemur ltibia
    ltibia lfoot
    lfoot ltoes
    rhipjoint rfemur
    rfemur rtibia
    rtibia rfoot
    rfoot rtoes
    lowerback upperback
    upperback thorax
    thorax lowerneck lclavicle rclavicle
    lowerneck upperneck
    upperneck head
    lclavicle lhumerus
    lhumerus lradius
    lradius lwrist
    lwrist lhand lthumb
    lhand lfingers
    rclavicle rhumerus
    rhumerus rradius
    rradius rwrist
    rwrist rhand rthumb
    rhand rfingers
  end

#!OML:ASF H:\BreakDance\Project 1\Capture day 1\Session 1\Male.ASF
:FULLY-SPECIFIED
:DEGREES
731
root 12.2122 8.95256 6.52261 183.299 -55.1958 -131.26
lowerback 23.2367 2.98834 2.65698
upperback 9.20398 2.85072 -5.72862
thorax -2.32627 1.11378 -8.45778
lowerneck -9.54535 3.66008 0.308894
upperneck -11.6715 4.73519 3.82306
head -2.18917 2.06258 1.2119
rclavicle -2.22639e-014 6.99722e-014
rhumerus 5.62293 -29.2022 -94.8165
rradius 13.8223
rwrist 6.52529
rhand -15.0459 -27.9643
rfingers 7.12502
rthumb 11.1205 302.35
lclavicle -2.22639e-014 6.99722e-014
lhumerus 27.704 -15.1549 79.0111
lradius 24.2538
lwrist 5.02112
lhand -48.9863 105.352
lfingers 7.12502
lthumb -21.6159 -76.539
rfemur -63.1986 -11.1466 0.998771
rtibia 97.1707
rfoot -13.6891 -11.4755
rtoes 0.763522
lfemur -83.4635 17.4077 -23.1469
ltibia 114.461
lfoot -16.7955 -1.45075
ltoes -60.5159
732
root 12.2015 9.02135 6.56388 187.71 -55.6078 -133.83
lowerback 23.2148 3.05411 2.13882
upperback 9.33667 2.82096 -5.66811
thorax -2.21428 1.09115 -8.07297
lowerneck -10.2135 3.49835 -0.615752
upperneck -12.4123 4.53079 3.22916
head -2.32778 1.98772 1.18575
rclavicle -7.31528e-014 -1.31595e-013
rhumerus 7.16372 -32.7247 -95.2625
rradius 13.0679
rwrist 9.7393
rhand -15.7149 -29.3858
rfingers 7.12502
rthumb 10.4752 300.895
lclavicle -7.31528e-014 -1.31595e-013
lhumerus 29.5106 -16.2439 78.6982
lradius 24.8289
lwrist 6.55239
lhand -49.0951 105.467
lfingers 7.12502
lthumb -21.7203 -76.6657
rfemur -63.0735 -12.0697 0.936356
rtibia 98.1182
rfoot -13.9845 -11.3681
rtoes 3.18515
lfemur -85.6163 17.2127 -24.6344
ltibia 113.632
lfoot -15.4301 -3.74383
ltoes -59.1268
733
root 12.1914 9.0884 6.59881 192.087 -56.0893 -136.261
lowerback 23.0552 3.00972 1.81527
upperback 9.47824 2.70801 -5.56449
thorax -2.0261 1.03694 -7.72698
lowerneck -10.8674 3.32082 -1.46782
upperneck -13.1546 4.2885 2.54394
head -2.46667 1.89365 1.11635
rclavicle 8.5875e-014 9.38264e-014
rhumerus 7.91794 -32.394 -94.8738
rradius 13.2904
rwrist 8.15331
rhand -16.0421 -31.1331
rfingers 7.12502
rthumb 10.1595 299.132
lclavicle 8.5875e-014 9.38264e-014
lhumerus 31.2351 -17.0797 78.4294
lradius 25.4018
lwrist 7.85665
lhand -49.189 105.561
lfingers 7.12502
lthumb -21.8105 -76.7696
rfemur -63.0382 -13.0188 1.13664
rtibia 98.9872
rfoot -14.1123 -11.3177
rtoes 5.0543
lfemur -87.9263 17.0261 -26.2464
ltibia 112.823
lfoot -13.8859 -5.7226
ltoes -57.4112
734
root 12.179 9.15555 6.62778 196.383 -56.6372 -138.541
lowerback 22.7713 2.87188 1.70142
upperback 9.63099 2.53275 -5.4265
thorax -1.76049 0.961326 -7.44519
lowerneck -11.4183 3.13557 -2.28388
upperneck -13.9448 4.02889 1.88072
head -2.64191 1.78896 1.04516
rclavicle -1.27222e-014 3.27995e-014
rhumerus 8.15763 -29.5705 -93.883
rradius 14.2037
rwrist 3.05704
rhand -15.9552 -32.4184
rfingers 7.12502
rthumb 10.2434 297.851
lclavicle -1.27222e-014 3.27995e-014
lhumerus 32.907 -17.7042 78.1945
lradius 25.9317
lwrist 8.95845
lhand -49.2497 105.647
lfingers 7.12502
lthumb -21.8688 -76.8626
rfemur -63.0067 -13.8816 1.60449
rtibia 99.7
rfoot -14.1149 -11.2997
rtoes 5.67956
lfemur -90.3318 16.8191 -27.898
ltibia 112.003
lfoot -12.1791 -7.31229
ltoes -55.2749
735
root 12.1658 9.2231 6.65019 200.549 -57.2322 -140.683
lowerback 22.4094 2.65575 1.77133
upperback 9.79674 2.30054 -5.27574
thorax -1.43813 0.865193 -7.24203
lowerneck -11.8532 2.96337 -3.01579
upperneck -14.7503 3.77593 1.26695
head -2.84529 1.68488 0.973099
rclavicle -8.5875e-014 7.00343e-014
rhumerus 8.36312 -26.1708 -92.841
rradius 15.4636
rwrist -3.32647
rhand -15.6704 -32.888
rfingers 7.12502
rthumb 10.5181 297.395
lclavicle -8.5875e-014 7.00343e-014
lhumerus 34.5594 -18.1627 77.8944
lradius 26.4147
lwrist 9.93979
lhand -49.2819 105.758
lfingers 7.12502
lthumb -21.8997 -76.9775
rfemur -62.9291 -14.5646 2.31855
rtibia 100.229
rfoot -14.0532 -11.2103
rtoes 5.04105
lfemur -92.613 16.6333 -29.503
ltibia 111.156
lfoot -10.3926 -8.53929
ltoes -52.9378
736
root 12.1505 9.29105 6.66521 204.672 -57.8243 -142.779
lowerback 21.9424 2.39197 1.94174
upperback 9.96172 2.02994 -5.13523
thorax -1.06266 0.756062 -7.09946
lowerneck -12.1565 2.81033 -3.67594
upperneck -15.5605 3.54239 0.746901
head -3.07798 1.58876 0.91698
rclavicle -1.59028e-015 -3.21534e-014
rhumerus 8.80781 -23.264 -92.05
rradius 16.7645
rwrist -9.3633
rhand -15.5338 -32.4688
rfingers 7.12502
rthumb 10.6499 297.821
lclavicle -1.59028e-015 -3.21534e-014
lhumerus 36.2163 -18.5155 77.4427
lradius 26.854
lwrist 10.8983
lhand -49.2865 105.888
lfingers 7.12502
lthumb -21.9041 -77.1084
rfemur -62.8482 -15.0439 3.21114
rtibia 100.558
rfoot -13.9437 -11.0546
rtoes 2.88397
lfemur -94.8265 16.4701 -31.1026
ltibia 110.285
lfoot -8.50499 -9.51956
ltoes -50.2114
737
root 12.1334 9.3584 6.67252 208.842 -58.3411 -144.936
lowerback 21.3728 2.1181 2.11575
upperback 10.1053 1.74756 -5.01972
thorax -0.658943 0.643683 -6.9854
lowerneck -12.3614 2.66083 -4.32938
upperneck -16.3206 3.32358 0.389076
head -3.31822 1.50144 0.911579
rclavicle 7.95139e-014 6.58971e-014
rhumerus 9.55631 -21.1091 -91.5773
rradius 17.8868
rwrist -14.0632
rhand -15.7418 -31.4427
rfingers 7.12502
rthumb 10.4492 298.837
lclavicle 7.95139e-014 6.58971e-014
lhumerus 37.8457 -18.8189 76.8161
lradius 27.2838
lwrist 11.9078
lhand -49.2553 106.046
lfingers 7.12502
lthumb -21.8741 -77.2626
rfemur -62.8126 -15.2524 4.17971
rtibia 100.709
rfoot -13.809 -10.8642
rtoes -0.483765
lfemur -96.918 16.3372 -32.7317
ltibia 109.4
lfoot -6.51933 -10.3356
ltoes -47.2162
738
root 12.1148 9.42406 6.67236 213.111 -58.7164 -147.215
lowerback 20.7012 1.87086 2.21437
upperback 10.2148 1.48523 -4.93718
thorax -0.239759 0.540467 -6.87054
lowerneck -12.5477 2.49486 -4.98748
upperneck -16.9604 3.10204 0.203747
head -3.52624 1.41391 0.964215
rclavicle 4.92986e-014 -5.54609e-014
rhumerus 10.5494 -19.4971 -91.3726
rradius 18.7741
rwrist -16.9897
rhand -16.3548 -30.2089
rfingers 7.12502
rthumb 9.85786 300.042
lclavicle 4.92986e-014 -5.54609e-014
lhumerus 39.3993 -19.1219 76.0441
lradius 27.7535
lwrist 13.0031
lhand -49.2128 106.262
lfingers 7.12502
lthumb -21.8334 -77.4736
rfemur -62.8608 -15.1819 5.1337
rtibia 100.71
rfoot -13.6695 -10.6599
rtoes -4.24786
lfemur -98.8849 16.2112 -34.4004
ltibia 108.512
lfoot -4.4566 -10.8644
ltoes -44.032
739
root 12.0985 9.48583 6.66598 217.535 -58.916 -149.649
lowerback 19.9116 1.66928 2.18753
upperback 10.2754 1.26257 -4.8868
thorax 0.188604 0.453812 -6.7285
lowerneck -12.7358 2.30992 -5.58716
upperneck -17.4859 2.8603 0.0894164
head -3.69403 1.3144 1.03101
rclavicle -5.725e-014 -2.90226e-014
rhumerus 11.6859 -18.1948 -91.3484
rradius 19.4713
rwrist -18.1082
rhand -17.1777 -28.9934
rfingers 7.12502
rthumb 9.06386 301.221
lclavicle -5.725e-014 -2.90226e-014
lhumerus 40.844 -19.4563 75.1804
lradius 28.2899
lwrist 14.1842
lhand -49.2325 106.513
lfingers 7.12502
lthumb -21.8523 -77.7269
rfemur -63.0583 -14.8406 5.99618
rtibia 100.62
rfoot -13.5667 -10.5013
rtoes -7.92276
lfemur -100.789 16.0803 -36.1339
ltibia 107.663
lfoot -2.34152 -11.2816
ltoes -40.9175
740
root 12.0827 9.5484 6.65461 222.055 -58.9755 -152.243
lowerback 19.1092 1.49555 2.04854
upperback 10.2977 1.05907 -4.85338
thorax 0.583874 0.371048 -6.54929
lowerneck -12.9194 2.11579 -6.07479
upperneck -17.9499 2.59279 -0.0508974
head -3.83688 1.19734 1.0699
rclavicle 1.27222e-013 -6.63941e-014
rhumerus 12.8985 -17.0973 -91.4487
rradius 20.0726
rwrist -17.7487
rhand -17.8679 -27.8859
rfingers 7.12502
rthumb 8.39779 302.301
lclavicle 1.27222e-013 -6.63941e-014
lhumerus 42.1776 -19.8085 74.2749
lradius 28.8955
lwrist 15.4068
lhand -49.2961 106.747
lfingers 7.12502
lthumb -21.9133 -77.9683
rfemur -63.3033 -14.2517 6.73683
rtibia 100.433
rfoot -13.4319 -10.3936
rtoes -10.7359
lfemur -102.526 15.9013 -37.8688
ltibia 106.84
lfoot -0.273212 -11.4345
ltoes -37.778
741
root 12.0721 9.61077 6.63967 226.651 -58.9494 -155.021
lowerback 18.3718 1.31552 1.84778
upperback 10.2963 0.838584 -4.83192
thorax 0.920534 0.274779 -6.35162
lowerneck -13.1024 1.9308 -6.39742
upperneck -18.4074 2.30674 -0.287078
head -3.97189 1.06298 1.04764
rclavicle 1.08139e-013 6.55989e-015
rhumerus 14.1364 -16.0814 -91.633
rradius 20.7475
rwrist -16.8716
rhand -18.4471 -26.9801
rfingers 7.12502
rthumb 7.83885 303.185
lclavicle 1.08139e-013 6.55989e-015
lhumerus 43.4378 -20.1537 73.3592
lradius 29.5238
lwrist 16.6045
lhand -49.5014 106.995
lfingers 7.12502
lthumb -22.1105 -78.2393
rfemur -63.5751 -13.5 7.34455
rtibia 100.205
rfoot -13.3357 -10.2799
rtoes -13.0545
lfemur -104.042 15.6379 -39.5309
ltibia 106.082
lfoot 1.63404 -11.3929
ltoes -35.1126
742
root 12.0634 9.67607 6.62273 231.329 -58.8706 -157.978
lowerback 17.7019 1.11646 1.63328
upperback 10.2745 0.59382 -4.80594
thorax 1.20127 0.163422 -6.14371
lowerneck -13.2995 1.75787 -6.56376
upperneck -18.8657 2.00493 -0.62402
head -4.1005 0.91225 0.963723
rclavicle 1.74931e-013 1.10723e-013
rhumerus 15.3992 -15.156 -91.8585
rradius 21.5835
rwrist -16.4155
rhand -18.9127 -26.2808
rfingers 7.12502
rthumb 7.38946 303.868
lclavicle 1.74931e-013 1.10723e-013
lhumerus 44.6513 -20.4668 72.5333
lradius 30.1247
lwrist 17.6897
lhand -49.8094 107.235
lfingers 7.12502
lthumb -22.4062 -78.5148
rfemur -63.8801 -12.6516 7.83985
rtibia 99.9295
rfoot -13.2672 -10.0907
rtoes -15.1402
lfemur -105.434 15.2303 -41.0532
ltibia 105.384
lfoot 3.33136 -10.9504
ltoes -32.6745
743
root 12.056 9.74596 6.60486 235.997 -58.7837 -161.093
lowerback 17.2078 0.876684 1.48834
upperback 10.2485 0.303517 -4.76257
thorax 1.38721 0.028461 -5.95753
lowerneck -13.4956 1.59736 -6.61773
upperneck -19.3562 1.69435 -1.01132
head -4.24063 0.749473 0.842789
rclavicle 1.98785e-014 7.35503e-015
rhumerus 16.7265 -14.2967 -92.0939
rradius 22.5689
rwrist -17.1076
rhand -19.31 -26.0207
rfingers 7.12502
rthumb 7.00595 304.115
lclavicle 1.98785e-014 7.35503e-015
lhumerus 45.8178 -20.7222 71.8548
lradius 30.6968
lwrist 18.6278
lhand -50.1579 107.44
lfingers 7.12502
lthumb -22.7407 -78.7602
rfemur -64.1353 -11.7258 8.25201
rtibia 99.6089
rfoot -13.3317 -9.69668
rtoes -17.5764
lfemur -106.525 14.7014 -42.3217
ltibia 104.749
lfoot 4.83287 -10.2446
ltoes -30.497
744
root 12.0495 9.81998 6.586 240.602 -58.6529 -164.29
lowerback 16.8519 0.606131 1.41925
upperback 10.2268 -0.020921 -4.71378
thorax 1.50706 -0.122859 -5.80936
lowerneck -13.6973 1.44091 -6.62488
upperneck -19.8963 1.38155 -1.34714
head -4.40198 0.578516 0.73116
rclavicle 1.34378e-013 4.65156e-014
rhumerus 18.1938 -13.457 -92.3326
rradius 23.618
rwrist -19.1887
rhand -19.6985 -26.1939
rfingers 7.12502
rthumb 6.63084 303.93
lclavicle 1.34378e-013 4.65156e-014
lhumerus 46.9908 -20.9462 71.1904
lradius 31.2414
lwrist 19.5285
lhand -50.5135 107.62
lfingers 7.12502
lthumb -23.0819 -78.982
rfemur -64.3977 -10.7333 8.60665
rtibia 99.2536
rfoot -13.5279 -9.00691
rtoes -20.6752
lfemur -107.409 14.1266 -43.3074
ltibia 104.19
lfoot 6.14423 -9.22332
ltoes -28.4898
745
root 12.0431 9.89761 6.56596 245.062 -58.4263 -167.489
lowerback 16.6154 0.330752 1.37147
upperback 10.2228 -0.355233 -4.65333
thorax 1.5856 -0.280832 -5.66317
lowerneck -13.9149 1.27553 -6.69269
upperneck -20.4711 1.07639 -1.53067
head -4.58095 0.408724 0.68236
rclavicle -5.48646e-014 -5.22804e-014
rhumerus 19.854 -12.5903 -92.5243
rradius 24.6284
rwrist -22.3554
rhand -20.1877 -26.9139
rfingers 7.12502
rthumb 6.1586 303.196
lclavicle -5.48646e-014 -5.22804e-014
lhumerus 48.2144 -21.1898 70.3908
lradius 31.762
lwrist 20.5573
lhand -50.8122 107.807
lfingers 7.12502
lthumb -23.3684 -79.2058
rfemur -64.6717 -9.6054 8.87683
rtibia 98.8693
rfoot -13.8177 -7.9897
rtoes -24.4161
lfemur -108.109 13.5931 -43.9936
ltibia 103.698
lfoot 7.36646 -8.07344
ltoes -26.216
